<?xml version="1.0" standalone="no"?>
<!DOCTYPE svg PUBLIC "-//W3C//DTD SVG 20010904//EN"
 "http://www.w3.org/TR/2001/REC-SVG-20010904/DTD/svg10.dtd">
<svg version="1.0" xmlns="http://www.w3.org/2000/svg"
 width="790.000000pt" height="217.000000pt" viewBox="0 0 790.000000 217.000000"
 preserveAspectRatio="xMidYMid meet">

<g transform="translate(0.000000,217.000000) scale(0.100000,-0.100000)"
fill="#000000" stroke="none">
<path d="M5725 2129 c-154 -21 -443 -60 -643 -87 -200 -27 -366 -52 -369 -56
-3 -3 35 -423 86 -933 50 -511 94 -956 98 -990 l6 -63 41 6 c191 29 449 73
453 78 3 3 -6 206 -21 451 -33 558 -42 523 140 556 59 10 109 20 110 22 1 1 0
71 -3 155 -5 130 -8 152 -22 152 -9 0 -72 -9 -141 -19 -69 -10 -127 -17 -129
-15 -2 2 -6 39 -9 82 -3 62 -1 80 11 90 9 8 177 37 387 67 205 29 374 55 376
58 2 2 -11 108 -31 236 -19 127 -35 236 -35 241 0 12 30 15 -305 -31z"/>
<path d="M6830 1984 c0 -3 -45 -361 -100 -794 -55 -432 -100 -796 -100 -808 0
-22 1 -22 213 -22 l213 0 37 263 c21 144 74 507 118 806 43 299 79 548 79 552
0 5 -103 9 -230 9 -126 0 -230 -3 -230 -6z"/>
<path d="M7412 1828 c-110 -804 -193 -1409 -197 -1435 l-6 -33 218 0 218 0
114 738 c62 405 119 772 126 815 l12 77 -231 0 -232 0 -22 -162z"/>
<path d="M1406 1858 c-4 -57 -9 -124 -12 -150 -6 -46 -7 -48 -39 -48 -31 0
-33 -2 -39 -42 -3 -24 -8 -103 -12 -175 l-7 -133 32 0 32 0 -6 -67 c-7 -84
-55 -829 -55 -860 l0 -23 214 0 214 0 6 58 c4 31 20 228 37 436 35 444 35 444
124 456 l40 5 12 145 c18 224 23 200 -48 200 l-61 0 6 118 c4 64 10 132 13
150 l5 32 -225 0 -225 0 -6 -102z"/>
<path d="M622 1930 c-94 -25 -239 -82 -324 -128 -48 -26 -72 -45 -83 -68 -18
-37 -59 -473 -52 -542 7 -63 46 -116 109 -145 29 -14 127 -42 218 -62 198 -45
263 -68 290 -102 58 -73 -21 -213 -120 -213 -29 0 -43 9 -85 54 -28 29 -62 74
-75 100 -14 25 -30 46 -36 46 -18 0 -138 -59 -306 -150 l-157 -84 37 -51 c20
-27 69 -99 109 -160 103 -157 102 -156 142 -172 54 -23 186 -19 331 11 182 37
310 79 342 113 44 47 178 244 214 315 l34 68 0 147 c-1 166 -9 223 -37 262
-29 41 -155 97 -303 137 -221 59 -237 64 -272 87 -27 19 -34 30 -36 65 -3 34
2 47 22 67 45 45 155 26 176 -31 6 -14 10 -50 10 -81 l0 -56 63 7 c35 3 135
26 223 50 l159 43 -3 54 c-16 293 -24 330 -78 366 -96 63 -371 92 -512 53z"/>
<path d="M6026 1525 c-143 -36 -261 -67 -263 -69 -2 -2 -1 -47 3 -100 8 -112
-3 -105 139 -76 127 26 210 26 252 0 33 -20 51 -59 38 -81 -14 -22 -90 -47
-235 -79 -192 -41 -235 -56 -281 -97 -46 -41 -67 -95 -104 -258 -21 -93 -26
-140 -23 -207 3 -84 4 -88 37 -122 51 -53 129 -79 217 -74 90 6 133 30 234
132 41 42 78 76 82 76 5 0 8 -47 8 -105 l0 -105 193 0 192 0 1 203 c0 190 3
221 48 514 27 174 46 323 42 338 -10 38 -77 100 -146 135 -103 52 -136 50
-434 -25z m137 -611 c-11 -28 -157 -162 -190 -175 -32 -12 -73 11 -73 42 0 33
37 96 73 123 18 14 69 38 113 53 l79 28 3 -25 c2 -14 -1 -35 -5 -46z"/>
<path d="M2926 1448 c-3 -57 -8 -311 -11 -565 l-6 -463 175 0 c176 0 176 0
176 23 0 12 5 130 10 262 9 218 12 241 30 259 11 11 22 18 24 15 3 -3 13 -167
22 -365 9 -197 17 -360 19 -362 3 -4 357 -74 359 -70 1 2 -18 1130 -23 1314
l-1 32 -167 -85 c-93 -46 -185 -86 -205 -90 l-38 -6 0 65 0 64 -172 37 c-95
21 -176 37 -180 37 -3 0 -9 -46 -12 -102z"/>
<path d="M2412 1529 c-75 -13 -156 -43 -212 -79 -64 -41 -141 -124 -169 -182
-31 -64 -39 -132 -55 -433 -16 -301 -15 -307 68 -383 60 -56 116 -80 213 -94
94 -13 199 4 297 50 85 40 178 128 216 205 30 61 30 67 50 362 11 165 22 323
25 350 7 62 -6 88 -63 132 -79 60 -250 93 -370 72z m38 -305 c11 -12 11 -61 1
-262 -12 -255 -20 -295 -57 -300 -47 -7 -49 10 -32 285 14 213 19 257 34 274
21 23 37 24 54 3z"/>
<path d="M4122 1514 c-130 -34 -254 -128 -301 -226 -22 -46 -22 -53 -19 -360
3 -302 4 -314 25 -348 34 -55 147 -161 215 -202 89 -55 116 -52 383 31 l220
69 -3 38 c-7 104 -21 246 -25 250 -3 3 -66 -18 -141 -46 -182 -67 -232 -65
-272 12 -29 55 -27 56 256 169 107 43 196 83 198 89 5 15 -47 340 -60 373 -20
51 -137 125 -242 153 -65 17 -166 17 -234 -2z m180 -301 c21 -19 24 -58 6 -70
-17 -10 -121 -53 -130 -53 -5 0 -8 18 -8 41 0 75 83 127 132 82z"/>
</g>
</svg>
