<?xml version="1.0" standalone="no"?>
<!DOCTYPE svg PUBLIC "-//W3C//DTD SVG 20010904//EN"
 "http://www.w3.org/TR/2001/REC-SVG-20010904/DTD/svg10.dtd">
<svg version="1.0" xmlns="http://www.w3.org/2000/svg"
 width="700.000000pt" height="700.000000pt" viewBox="0 0 700.000000 700.000000"
 preserveAspectRatio="xMidYMid meet">
<metadata>
Created by potrace 1.14, written by Peter Selinger 2001-2017
</metadata>
<g transform="translate(0.000000,700.000000) scale(0.100000,-0.100000)"
fill="#000000" stroke="none">
<path d="M3710 6987 c-14 -7 -32 -14 -40 -14 -8 0 -28 -4 -45 -8 -16 -4 -38
-7 -47 -8 -10 -1 -18 -5 -18 -10 0 -5 -7 -7 -15 -4 -8 4 -17 2 -20 -3 -3 -5
-16 -9 -28 -8 -12 0 -33 -4 -47 -9 -14 -5 -39 -9 -57 -8 -17 0 -29 -3 -26 -8
3 -4 -1 -7 -8 -6 -19 3 -70 -12 -95 -28 -11 -7 -24 -10 -27 -6 -4 3 -7 -1 -7
-9 0 -9 -7 -21 -15 -28 -8 -7 -12 -16 -9 -21 3 -5 1 -9 -4 -9 -5 0 -9 -6 -10
-12 0 -7 -6 -33 -13 -58 -13 -50 -20 -87 -22 -112 -1 -10 -4 -18 -7 -19 -3 0
-14 -3 -25 -5 -11 -2 -65 -7 -120 -9 -173 -8 -259 -15 -265 -23 -3 -4 -21 -7
-40 -7 -19 0 -39 -2 -45 -5 -5 -2 -20 -5 -33 -6 -12 0 -25 -4 -29 -7 -3 -4
-12 -2 -20 5 -8 6 -13 7 -12 2 4 -21 -2 -28 -11 -14 -6 9 -13 11 -17 5 -7 -9
-40 -15 -85 -16 -10 0 -18 -5 -18 -11 0 -6 -6 -6 -15 2 -12 10 -15 10 -15 0 0
-8 -8 -10 -25 -6 -14 4 -25 3 -25 -2 0 -4 -11 -9 -25 -10 -14 -1 -36 -2 -50
-3 -13 -1 -23 -4 -21 -8 2 -3 -12 -6 -32 -6 -21 1 -41 -1 -47 -4 -5 -3 -13 -6
-17 -7 -5 -1 -10 -3 -13 -4 -3 -1 -8 -4 -12 -5 -46 -13 -72 -29 -66 -38 3 -7
2 -9 -2 -4 -5 4 -19 0 -32 -8 -13 -9 -23 -13 -23 -10 0 4 -7 0 -15 -7 -34 -31
-43 -36 -49 -31 -3 4 -6 2 -6 -4 0 -6 -13 -16 -30 -23 -17 -7 -30 -16 -30 -19
0 -4 -16 -13 -35 -21 -19 -7 -36 -19 -39 -27 -3 -7 -12 -10 -22 -6 -11 4 -15
2 -11 -4 4 -6 -4 -14 -18 -17 -14 -4 -23 -11 -20 -16 3 -6 -1 -7 -9 -4 -9 3
-16 1 -16 -5 0 -6 -9 -11 -19 -11 -11 0 -26 -6 -33 -12 -7 -7 -22 -15 -33 -16
-11 -2 -21 -8 -23 -12 -2 -5 -10 -6 -18 -3 -8 3 -14 0 -14 -7 0 -6 -4 -9 -8
-6 -5 3 -18 -2 -28 -12 -11 -9 -26 -18 -34 -20 -8 -2 -16 -8 -18 -13 -2 -5 -8
-9 -14 -9 -5 0 -16 -6 -23 -12 -45 -41 -55 -42 -55 -7 0 9 -6 20 -12 22 -9 4
-8 6 2 6 24 1 -57 51 -82 51 -13 0 -28 4 -34 9 -5 6 -20 12 -34 15 -49 10 -67
14 -117 29 -28 9 -54 13 -57 10 -3 -4 -6 -2 -6 3 0 6 -15 11 -32 12 -48 4 -67
7 -74 14 -3 4 -17 3 -30 -2 -15 -6 -24 -6 -24 0 0 6 -5 10 -11 10 -5 0 -8 -3
-5 -8 2 -4 -13 -16 -34 -26 -22 -10 -38 -24 -37 -30 1 -6 -2 -11 -8 -10 -5 1
-18 -7 -28 -17 -9 -11 -14 -19 -10 -19 4 0 -3 -7 -15 -16 -12 -8 -20 -19 -17
-24 3 -5 -14 -22 -37 -38 -24 -16 -62 -48 -86 -71 -23 -22 -49 -41 -57 -41 -8
0 -15 -5 -15 -11 0 -5 -4 -8 -9 -4 -5 3 -12 1 -16 -5 -4 -6 -10 -8 -14 -6 -9
6 -77 -64 -74 -76 2 -4 -1 -8 -6 -8 -5 0 -13 -9 -16 -20 -4 -11 -10 -18 -15
-15 -4 3 -11 -6 -14 -20 -4 -14 -11 -25 -17 -25 -6 0 -8 -4 -4 -9 3 -5 -2 -17
-11 -25 -8 -9 -12 -16 -7 -16 4 0 -1 -7 -11 -15 -11 -8 -17 -15 -13 -15 4 0
-1 -10 -12 -22 -11 -11 -18 -25 -15 -30 3 -4 0 -8 -6 -8 -6 0 -8 -4 -5 -10 3
-5 -1 -10 -10 -10 -9 0 -13 -4 -10 -10 3 -5 -3 -19 -14 -31 -11 -12 -17 -28
-14 -37 4 -9 2 -13 -4 -9 -7 4 -18 -11 -29 -38 -9 -25 -21 -45 -26 -45 -5 0
-6 -5 -3 -10 4 -6 1 -27 -6 -48 -7 -20 -14 -39 -14 -42 -5 -26 -30 -78 -37
-74 -5 3 -7 2 -6 -3 4 -17 -14 -53 -24 -47 -6 4 -8 2 -4 -4 3 -6 0 -16 -7 -24
-7 -7 -14 -16 -15 -20 -1 -5 -2 -9 -3 -10 -4 -15 -9 -37 -11 -53 -2 -11 -9
-24 -16 -28 -9 -6 -12 -62 -12 -224 0 -210 1 -217 23 -247 13 -17 31 -48 41
-68 9 -21 21 -38 27 -38 6 0 8 -4 5 -9 -3 -5 3 -20 14 -34 11 -14 20 -35 20
-46 0 -12 5 -21 10 -21 6 0 10 -7 10 -15 0 -8 5 -15 10 -15 6 0 10 -7 10 -15
0 -8 5 -15 10 -15 6 0 10 -7 10 -16 0 -8 5 -12 10 -9 6 3 10 -1 10 -9 0 -9 5
-16 11 -16 8 0 9 -4 0 -13 -6 -8 -8 -17 -4 -20 3 -4 1 -7 -5 -7 -7 0 -12 -7
-12 -15 0 -8 -5 -15 -12 -15 -6 0 -8 -3 -5 -6 4 -4 -6 -30 -22 -59 -29 -52
-31 -73 -18 -152 3 -18 2 -35 -4 -38 -5 -4 -9 -19 -9 -36 0 -16 -4 -29 -9 -29
-6 0 -8 -9 -6 -20 2 -11 0 -22 -4 -25 -5 -2 -8 -15 -7 -27 1 -13 -2 -25 -5
-28 -4 -3 -10 -21 -12 -40 -3 -19 -6 -37 -7 -40 -6 -14 -4 -36 4 -47 4 -7 5
-13 2 -13 -4 0 5 -15 19 -34 21 -28 25 -41 20 -68 -4 -18 -8 -43 -9 -55 0 -13
-4 -23 -8 -23 -5 0 -7 -3 -6 -7 1 -5 -2 -30 -7 -58 -5 -27 -9 -53 -9 -57 -1
-3 -4 -10 -8 -14 -5 -4 -8 -18 -8 -31 0 -12 -5 -23 -12 -23 -6 0 -8 -3 -5 -7
4 -3 0 -17 -8 -30 -9 -13 -11 -23 -5 -23 5 0 10 -5 10 -11 0 -5 -5 -7 -10 -4
-6 3 -11 -3 -11 -14 -2 -33 -4 -39 -11 -47 -4 -4 -2 -14 5 -22 8 -11 8 -14 0
-9 -6 4 -14 3 -18 -3 -3 -5 -1 -10 5 -10 6 0 9 -4 5 -9 -3 -5 -1 -12 4 -16 10
-6 7 -37 -5 -57 -4 -6 -3 -8 4 -4 11 7 11 -31 -1 -51 -3 -5 -3 -13 0 -17 4 -4
8 -16 10 -27 2 -14 -1 -18 -9 -13 -10 6 -10 4 -2 -7 6 -8 11 -41 12 -74 2
-131 5 -180 12 -190 8 -10 10 -16 10 -33 0 -5 9 -18 20 -30 12 -12 18 -22 15
-22 -2 0 15 -21 40 -46 25 -25 45 -54 45 -65 0 -10 4 -19 9 -19 4 0 7 -12 7
-28 -1 -15 3 -33 9 -41 10 -14 16 -141 6 -138 -3 1 -7 -2 -8 -6 -1 -5 -11 -17
-22 -26 -11 -10 -18 -21 -14 -25 3 -3 1 -6 -6 -6 -25 0 -34 -58 -35 -223 -1
-92 3 -167 7 -167 5 0 7 -6 4 -14 -3 -7 0 -19 6 -25 6 -6 8 -11 4 -11 -4 0 1
-9 10 -19 9 -11 21 -17 26 -14 6 3 7 1 4 -4 -4 -6 2 -22 13 -35 11 -14 16 -28
13 -32 -3 -3 -1 -6 6 -6 7 0 10 -4 7 -8 -3 -5 4 -14 14 -22 10 -8 17 -17 14
-22 -3 -4 0 -8 7 -8 7 0 9 -3 6 -6 -4 -4 3 -15 15 -25 11 -11 18 -19 13 -19
-4 0 4 -15 19 -34 14 -19 26 -37 26 -41 0 -3 9 -15 20 -27 11 -12 20 -28 20
-35 0 -8 4 -11 10 -8 5 3 10 0 10 -8 0 -12 9 -26 50 -74 5 -7 10 -15 10 -19 0
-4 11 -17 26 -30 14 -13 23 -24 20 -24 -6 0 24 -38 56 -72 10 -10 18 -23 18
-29 0 -5 4 -7 10 -4 5 3 10 -1 10 -9 0 -9 7 -16 16 -16 8 0 12 -5 9 -10 -3 -6
-1 -10 5 -10 6 0 18 -7 27 -15 8 -8 19 -12 25 -9 7 4 8 2 4 -4 -6 -11 5 -16
20 -9 3 1 10 -6 15 -16 6 -9 14 -15 20 -12 5 4 9 2 9 -2 0 -5 11 -20 24 -34
13 -14 29 -35 35 -48 7 -12 15 -20 19 -17 3 4 11 -2 17 -13 5 -11 34 -40 62
-64 29 -25 49 -47 46 -51 -4 -3 0 -6 9 -6 8 0 28 -13 44 -30 16 -16 34 -30 41
-30 7 0 21 -9 31 -21 11 -11 29 -21 41 -22 11 -1 21 -4 21 -7 0 -4 7 -7 15 -7
8 0 15 5 15 11 0 6 4 5 9 -2 7 -11 11 -11 24 2 8 9 21 16 27 16 6 0 8 6 5 13
-4 6 0 4 8 -6 11 -14 16 -15 20 -5 4 8 6 7 6 -4 1 -10 6 -18 12 -18 5 0 7 -5
3 -12 -4 -6 -3 -8 3 -5 5 3 21 -5 36 -19 15 -14 27 -23 27 -20 0 3 19 -15 43
-40 69 -74 80 -84 90 -77 6 3 7 1 4 -4 -4 -6 0 -16 8 -23 8 -7 15 -9 15 -4 0
4 7 -1 16 -12 8 -10 12 -12 8 -4 -5 11 -2 10 13 -3 19 -16 49 -27 81 -29 6 -1
12 -5 12 -8 0 -10 121 -10 140 0 8 4 29 10 45 11 17 2 33 8 37 13 3 5 15 10
27 11 11 1 30 10 42 21 14 12 19 13 14 4 -5 -9 0 -8 13 4 12 11 22 15 22 11 0
-5 12 2 27 16 14 13 22 17 18 9 -7 -12 -5 -12 11 1 20 18 50 17 67 0 6 -6 19
-11 29 -11 10 0 18 -4 18 -10 0 -5 7 -10 15 -10 8 0 15 -4 15 -9 0 -6 9 -8 20
-6 11 2 23 -1 26 -7 5 -7 2 -8 -6 -3 -9 6 -11 4 -6 -4 5 -7 10 -10 13 -7 3 3
22 -3 43 -14 21 -11 40 -16 44 -13 3 4 6 1 6 -6 0 -8 8 -11 20 -8 11 3 20 1
20 -4 0 -5 13 -7 30 -5 17 2 30 0 30 -5 0 -5 10 -9 23 -9 56 0 144 -8 159 -14
9 -4 22 -5 28 -1 5 3 10 2 10 -4 0 -6 6 -8 14 -5 8 3 24 1 35 -6 16 -8 21 -8
21 2 0 9 3 9 10 -2 5 -8 10 -11 10 -6 0 5 7 3 15 -4 12 -10 15 -10 15 0 0 8 4
9 13 3 6 -5 19 -9 27 -8 8 0 18 -3 21 -7 3 -4 24 -9 47 -10 22 -1 39 -4 37 -8
-2 -4 2 -7 10 -7 8 0 15 5 15 11 0 8 2 8 8 0 10 -15 42 -25 42 -13 0 6 6 7 13
2 6 -4 23 -8 37 -8 14 0 31 -4 38 -8 7 -5 12 -3 12 4 0 8 4 8 13 2 6 -6 41
-11 77 -12 35 -1 67 -7 71 -12 4 -8 9 -8 14 0 5 9 10 9 20 1 10 -8 15 -8 20 0
5 8 11 7 22 -1 11 -10 16 -10 23 0 4 7 10 9 13 4 6 -10 258 -10 275 0 5 4 13
1 15 -5 4 -9 8 -10 14 -3 4 6 19 11 33 12 81 4 106 7 118 16 8 6 12 6 12 -2 0
-7 8 -8 23 -3 33 12 59 9 67 -8 23 -44 38 -85 34 -92 -3 -4 0 -8 5 -8 6 0 11
-7 11 -15 0 -8 5 -15 10 -15 6 0 10 -5 10 -10 0 -6 11 -22 25 -36 14 -14 25
-19 25 -12 0 9 2 10 8 1 4 -6 33 -19 66 -28 49 -14 86 -16 230 -11 191 6 196
7 196 16 0 4 11 6 25 5 14 -2 25 1 25 6 0 6 6 9 13 7 6 -1 27 12 46 29 33 30
91 50 111 38 6 -3 10 2 10 12 0 14 2 15 9 5 11 -18 12 -18 38 -4 15 8 24 9 28
2 5 -8 11 -8 19 -1 7 6 16 8 19 4 4 -3 7 -2 7 3 0 6 18 9 40 8 22 -1 40 2 40
6 0 4 18 6 40 5 22 -1 40 2 40 7 0 6 6 8 14 5 7 -3 33 -1 57 5 24 5 51 11 59
13 8 2 17 4 20 5 3 1 8 2 13 1 4 0 7 3 7 9 0 6 3 9 8 8 11 -4 102 33 102 41 0
4 10 8 22 8 13 1 27 8 33 15 5 7 16 14 24 16 7 1 32 22 55 46 35 36 58 53 86
61 30 8 50 18 50 25 0 5 9 12 21 15 11 4 25 17 31 31 6 13 14 21 19 19 4 -3
11 5 15 17 4 13 15 29 26 36 10 7 16 17 13 22 -3 5 -1 11 5 15 6 4 8 11 5 16
-4 5 -1 9 5 9 6 0 9 4 6 9 -3 5 1 12 10 15 8 3 12 10 9 16 -3 5 -1 10 4 10 6
0 11 7 11 15 0 8 5 15 11 15 5 0 8 4 4 9 -3 5 1 16 9 24 8 8 12 17 9 21 -4 3
-2 6 3 6 5 0 10 23 11 50 1 28 -1 48 -5 46 -4 -2 -8 10 -9 27 -1 17 -7 35 -12
40 -5 5 -7 16 -4 23 3 8 0 14 -7 14 -6 0 -8 5 -5 10 3 6 2 10 -3 10 -8 0 -20
26 -20 46 -1 3 -11 14 -23 25 -12 10 -19 19 -15 19 4 0 -4 11 -16 24 -13 13
-25 22 -28 21 -3 -2 -10 2 -16 9 -7 8 -6 19 6 39 9 15 20 24 23 21 4 -4 9 1
13 10 6 16 8 16 27 -1 13 -12 17 -13 12 -3 -5 8 3 5 19 -7 15 -12 33 -20 41
-17 7 3 16 0 20 -5 3 -6 11 -9 16 -6 5 4 9 2 9 -2 0 -5 12 -10 26 -11 15 -1
32 -5 38 -10 21 -14 136 2 136 19 0 5 6 9 13 9 7 0 22 8 33 17 10 10 31 24 47
32 15 8 27 18 27 23 0 4 4 8 9 8 6 0 25 14 43 30 18 17 29 30 24 30 -5 0 -2 8
6 18 16 19 17 30 4 51 -7 10 -6 12 3 6 8 -4 7 4 -3 24 -9 17 -13 31 -9 31 5 0
1 5 -7 11 -13 9 -12 10 2 5 10 -3 20 -2 22 3 3 4 22 8 42 9 20 1 42 6 49 12 6
5 15 7 18 3 4 -3 7 -1 7 6 0 7 4 10 9 7 11 -7 93 69 84 78 -4 4 0 4 10 0 12
-4 17 -1 17 10 0 9 3 15 8 15 21 -4 31 3 26 16 -4 10 0 15 10 15 9 0 31 15 48
33 18 17 35 32 38 32 3 0 15 9 27 20 12 11 34 30 48 43 14 13 23 27 20 33 -4
5 -1 9 5 9 6 0 8 5 5 10 -3 6 -2 10 2 10 8 0 51 141 56 185 1 11 7 26 11 34 7
11 6 12 -5 6 -12 -7 -12 -6 -1 7 7 9 12 20 11 24 -1 5 0 11 1 14 1 3 3 23 4
45 1 22 5 45 8 51 4 6 8 30 9 53 2 23 7 45 11 47 4 3 8 10 8 15 0 6 -5 7 -12
3 -7 -5 -8 -3 -2 7 10 16 13 31 17 79 1 19 5 40 8 45 9 17 4 219 -6 234 -5 10
-4 16 4 19 9 3 9 7 0 18 -9 11 -8 18 2 31 12 14 12 16 0 8 -11 -6 -13 -4 -8 8
3 9 1 18 -6 21 -9 3 -8 5 1 5 9 1 10 6 2 21 -11 20 7 43 74 95 13 11 23 21 21
23 -2 3 2 11 10 19 18 18 20 37 3 28 -7 -4 -5 0 6 9 10 8 16 22 13 31 -4 8 -1
15 5 15 6 0 5 6 -3 17 -10 11 -10 14 -1 9 12 -7 15 5 15 57 0 9 4 17 10 17 6
0 5 5 -2 13 -8 10 -8 16 0 24 8 8 8 20 1 41 -6 17 -6 35 -1 45 6 10 5 18 -1
22 -5 3 -10 11 -10 16 0 6 6 7 13 3 8 -5 8 -3 -2 9 -7 9 -11 26 -8 37 3 11 1
20 -5 20 -5 0 -6 4 -3 10 3 6 1 10 -4 10 -6 0 -11 7 -11 16 0 8 -4 12 -10 9
-6 -3 -10 1 -10 9 0 8 -9 18 -21 21 -11 4 -18 9 -16 12 6 5 -40 53 -51 53 -4
0 -14 9 -22 19 -7 11 -17 18 -22 15 -4 -3 -8 0 -8 6 0 6 -4 8 -10 5 -5 -3 -10
-1 -10 4 0 6 -4 10 -9 8 -10 -2 -45 19 -71 44 -10 10 -18 35 -19 65 -3 50 -8
99 -11 99 -1 0 -3 23 -5 50 -6 76 -10 99 -18 113 -5 7 -3 12 5 12 8 0 9 3 3 8
-6 4 -12 25 -14 47 -2 22 -6 42 -9 45 -4 3 -8 14 -9 25 -1 11 -4 35 -6 53 -4
29 1 36 24 34 8 -1 53 57 55 69 1 5 2 10 4 12 2 3 11 40 12 55 1 6 5 12 9 12
4 0 6 8 5 18 -2 9 3 25 10 36 7 10 10 24 8 31 -3 7 -1 16 5 19 6 4 7 14 4 23
-4 10 -2 14 4 10 6 -4 9 6 8 23 -1 17 2 30 6 30 8 0 22 68 24 123 0 20 -3 37
-8 37 -5 0 -7 7 -3 15 3 8 1 15 -4 15 -6 0 -9 3 -8 8 1 4 -4 20 -10 35 -7 15
-11 33 -9 40 1 7 -4 11 -11 9 -8 -1 -11 2 -7 9 4 6 2 22 -4 35 -6 13 -16 35
-22 48 -6 13 -11 36 -11 50 0 14 -4 23 -9 20 -8 -5 -13 10 -10 30 1 4 -3 14
-10 22 -6 7 -8 18 -4 24 3 5 1 10 -5 10 -6 0 -9 4 -5 9 3 5 1 12 -5 16 -5 3
-10 17 -10 31 0 13 -4 24 -8 24 -4 0 -9 12 -10 27 -1 15 -6 29 -11 32 -4 3 -7
14 -5 24 1 9 -3 23 -10 30 -6 6 -11 19 -11 27 1 8 -1 20 -4 25 -3 6 -6 13 -7
18 -1 4 -3 9 -4 12 -4 9 -7 25 -9 46 0 11 -5 17 -11 14 -5 -3 -10 1 -10 9 0 9
-4 16 -10 16 -5 0 -21 11 -35 25 -14 14 -25 23 -25 20 0 -10 -73 37 -92 60
-10 11 -17 30 -18 41 0 20 -24 40 -42 36 -5 -1 -8 2 -8 7 0 9 -70 56 -80 54
-3 -1 -11 5 -18 13 -7 8 -9 14 -5 14 4 1 -7 7 -25 15 -17 8 -36 25 -41 37 -5
13 -16 29 -24 36 -8 7 -18 24 -21 37 -4 14 -10 24 -14 23 -4 -1 -21 5 -38 15
-17 9 -34 13 -38 10 -3 -4 -6 -2 -6 4 0 6 -16 8 -37 6 -21 -2 -46 -5 -55 -6
-10 -1 -18 -5 -18 -9 0 -4 -3 -7 -7 -7 -5 1 -10 1 -13 -1 -3 -1 -16 -3 -29 -6
-14 -2 -31 -10 -40 -17 -12 -10 -13 -9 -6 3 7 13 5 12 -11 -1 -19 -16 -54 -15
-54 2 0 5 -7 9 -16 9 -8 0 -12 5 -9 10 4 6 3 10 -2 9 -21 -4 -32 3 -38 22 -6
17 -9 19 -16 8 -7 -11 -9 -11 -9 3 0 9 -9 20 -20 23 -11 3 -20 13 -20 21 0 8
-4 14 -9 14 -6 0 -37 26 -69 58 -145 140 -172 160 -219 157 -18 -1 -33 2 -33
7 0 5 -4 7 -9 4 -14 -9 -37 3 -39 19 -1 8 -3 22 -4 30 -1 8 -4 12 -8 10 -3 -2
-12 5 -20 15 -8 10 -17 17 -22 14 -4 -3 -8 2 -8 11 0 9 -4 14 -8 11 -5 -3 -14
4 -22 14 -8 10 -17 17 -22 14 -4 -3 -8 0 -8 7 0 7 -3 10 -6 6 -4 -3 -12 -1
-20 6 -25 22 -39 33 -74 54 -53 33 -82 60 -71 67 5 4 8 15 6 26 -2 11 0 20 4
20 11 0 2 84 -10 88 -5 2 -9 10 -9 18 0 8 -5 14 -11 14 -5 0 -7 4 -4 10 3 6
-1 7 -9 4 -11 -4 -16 0 -16 10 0 9 -4 16 -10 16 -11 0 -42 24 -78 60 -14 14
-22 19 -18 13 4 -7 5 -13 3 -13 -9 0 -57 80 -57 94 0 8 -4 16 -9 18 -5 2 -11
10 -13 18 -4 17 -41 50 -58 50 -6 0 -9 4 -6 8 5 8 -16 12 -66 15 -16 0 -28 4
-28 8 0 4 -8 8 -17 7 -33 0 -113 11 -131 19 -9 5 -29 8 -44 7 -16 0 -28 3 -28
7 0 4 -8 7 -17 7 -10 0 -31 2 -48 6 -16 4 -34 8 -40 9 -5 2 -16 7 -24 11 -11
7 -12 6 -6 -5 7 -11 6 -12 -6 -3 -8 5 -21 10 -29 9 -8 0 -17 2 -20 6 -5 6 -74
20 -112 22 -10 1 -18 5 -18 9 0 4 -7 5 -15 2 -8 -3 -20 -2 -27 2 -14 9 -31 13
-63 16 -11 1 -25 6 -32 10 -22 17 -116 20 -143 5z"/>
</g>
</svg>
